<svg width="58" height="58" viewBox="0 0 58 58" fill="none" xmlns="http://www.w3.org/2000/svg">
<path d="M23.0605 9.19482H47.1257" stroke="black" stroke-width="1.5" stroke-miterlimit="10" stroke-linecap="round" stroke-linejoin="round"/>
<mask id="mask0_811_151" style="mask-type:luminance" maskUnits="userSpaceOnUse" x="0" y="0" width="58" height="58">
<path d="M0 0H58V58H0V0Z" fill="white"/>
</mask>
<g mask="url(#mask0_811_151)">
<path d="M9.50509 42.1001H5.49607C3.7077 42.1001 2.25781 40.6502 2.25781 38.8618V12.433C2.25781 10.6446 3.7077 9.19473 5.49607 9.19473H6.36834" stroke="black" stroke-width="1.5" stroke-miterlimit="10" stroke-linecap="round" stroke-linejoin="round"/>
<path d="M54.6463 20.5036V38.8612C54.6463 40.6496 53.1965 42.0995 51.4081 42.0995L19.9238 42.0996" stroke="black" stroke-width="1.5" stroke-miterlimit="10" stroke-linecap="round" stroke-linejoin="round"/>
<path d="M21.0879 13.3354H47.9829" stroke="black" stroke-width="1.5" stroke-miterlimit="10" stroke-linecap="round" stroke-linejoin="round"/>
<path d="M2.25781 13.3354H8.3383" stroke="black" stroke-width="1.5" stroke-miterlimit="10" stroke-linecap="round" stroke-linejoin="round"/>
<path d="M17.4559 9.19436C17.4559 10.709 16.2279 11.937 14.7132 11.937C13.1986 11.937 11.9707 10.709 11.9707 9.19436C11.9707 7.67968 13.1986 6.45182 14.7132 6.45182C16.2279 6.45182 17.4559 7.67968 17.4559 9.19436Z" stroke="black" stroke-width="1.5" stroke-miterlimit="10" stroke-linecap="round" stroke-linejoin="round"/>
<path d="M23.0589 10.5826V7.80594L20.5304 7.27374C20.4354 6.98567 20.3195 6.70722 20.1846 6.43988L21.5964 4.27519L19.6331 2.3118L17.4684 3.72362C17.2011 3.58882 16.9226 3.47293 16.6346 3.37789L16.1024 0.849335H13.3257L12.7935 3.37789C12.5055 3.47293 12.227 3.58882 11.9597 3.72362L9.79499 2.3118L7.8316 4.27519L9.24343 6.43988C9.10862 6.70722 8.99273 6.98567 8.89769 7.27374L6.36914 7.80594V10.5826L8.89769 11.1148C8.99273 11.4028 9.10862 11.6813 9.24343 11.9487L7.8316 14.1133L9.79499 16.0766L11.9597 14.6648C12.227 14.7998 12.5055 14.9155 12.7935 15.0106L13.3257 17.5391H16.1024L16.6346 15.0106C16.9226 14.9155 17.2011 14.7998 17.4684 14.6648L19.6331 16.0766L21.5964 14.1133L20.1846 11.9487C20.3195 11.6813 20.4354 11.4028 20.5304 11.1148L23.0589 10.5826Z" stroke="black" stroke-width="1.5" stroke-miterlimit="10" stroke-linecap="round" stroke-linejoin="round"/>
<path d="M17.4569 25.2852H8.80273V22.001H17.4569V25.2852Z" stroke="black" stroke-width="1.5" stroke-miterlimit="10" stroke-linecap="round" stroke-linejoin="round"/>
<path d="M29.5833 21.2791L32.2244 18.6381C32.5337 18.3287 33.033 18.3287 33.3412 18.6381L37.453 22.7488C37.7624 23.058 38.2615 23.058 38.5697 22.7488L50.1321 11.1862H48.7266C48.2735 11.1862 47.8628 11.0022 47.5662 10.7055C47.2695 10.4088 47.0854 9.99693 47.0854 9.5438C47.0854 8.63755 47.8204 7.90259 48.7266 7.90259H54.1197C55.0145 7.90259 55.7392 8.62713 55.7392 9.52081V14.9139C55.7392 15.3682 55.5552 15.7777 55.2583 16.0755C54.9616 16.3723 54.55 16.5564 54.0967 16.5564C53.1905 16.5564 52.4544 15.8213 52.4544 14.9139V13.5096L38.5697 27.393C38.2615 27.7023 37.7624 27.7023 37.454 27.393L33.3412 23.2812C33.033 22.973 32.5337 22.973 32.2244 23.2812L25.2523 30.2545C24.6115 30.8963 23.5718 30.8963 22.9301 30.2545C22.6092 29.9336 22.4492 29.5138 22.4492 29.094C22.4492 28.673 22.6092 28.2532 22.9301 27.9323L26.7519 24.1106" stroke="black" stroke-width="1.5" stroke-miterlimit="10" stroke-linecap="round" stroke-linejoin="round"/>
<path d="M33.3691 36.4219H49.4713" stroke="black" stroke-width="1.5" stroke-miterlimit="10" stroke-linecap="round" stroke-linejoin="round"/>
<path d="M39.9258 32.6943H49.4721" stroke="black" stroke-width="1.5" stroke-miterlimit="10" stroke-linecap="round" stroke-linejoin="round"/>
<path d="M8.80273 28.5117H14.7142" stroke="black" stroke-width="1.5" stroke-miterlimit="10" stroke-linecap="round" stroke-linejoin="round"/>
<path d="M28.4513 57.1504C27.6573 57.1504 27.0137 56.5067 27.0137 55.7127V42.0995H29.889V55.7127C29.889 56.5067 29.2454 57.1504 28.4513 57.1504Z" stroke="black" stroke-width="1.5" stroke-miterlimit="10" stroke-linecap="round" stroke-linejoin="round"/>
<path d="M22.7384 42.1L19.1682 56.0688C19.0055 56.7052 18.4322 57.1504 17.7753 57.1504H17.4814C16.543 57.1504 15.856 56.266 16.0885 55.3567L18.5871 45.5803" stroke="black" stroke-width="1.5" stroke-miterlimit="10" stroke-linecap="round" stroke-linejoin="round"/>
<path d="M39.1273 57.1504H39.4212C40.3596 57.1504 41.0465 56.2659 40.8141 55.3567L37.4258 42.0995H34.1641L37.7343 56.0687C37.897 56.7051 38.4703 57.1504 39.1273 57.1504Z" stroke="black" stroke-width="1.5" stroke-miterlimit="10" stroke-linecap="round" stroke-linejoin="round"/>
<path d="M19.9223 42.1001C19.9223 44.9767 17.5902 47.3081 14.7137 47.3081C14.3103 47.3081 13.9173 47.262 13.54 47.1755C11.2292 46.6429 9.50586 44.5732 9.50586 42.1001C9.50586 39.6271 11.2292 37.5573 13.54 37.0248C13.9173 36.9383 14.3103 36.8922 14.7137 36.8922C17.5902 36.8922 19.9223 39.2237 19.9223 42.1001Z" stroke="black" stroke-width="1.5" stroke-miterlimit="10" stroke-linecap="round" stroke-linejoin="round"/>
<path d="M14.7129 40.9542V43.2456" stroke="black" stroke-width="1.5" stroke-miterlimit="10" stroke-linecap="round" stroke-linejoin="round"/>
</g>
</svg>
