<svg width="60" height="58" viewBox="0 0 60 58" fill="none" xmlns="http://www.w3.org/2000/svg">
<path d="M37.9732 14.7071C39.5758 14.7071 40.8797 13.4033 40.8797 11.8006C40.8797 10.198 39.5758 8.89404 37.9732 8.89404C36.3706 8.89404 35.0667 10.198 35.0667 11.8006C35.0667 12.4552 35.2844 13.0597 35.6509 13.5462L30.8754 20.2196C30.5905 20.126 30.2865 20.0746 29.9705 20.0746C29.2068 20.0746 28.5113 20.3712 27.9921 20.8546L24.809 19.0484C24.8515 18.8512 24.8743 18.6468 24.8743 18.4372C24.8743 16.8346 23.5704 15.5307 21.9678 15.5307C20.3651 15.5307 19.0613 16.8346 19.0613 18.4372C19.0613 18.6468 19.0841 18.8512 19.1265 19.0484L15.9435 20.8546C15.4242 20.3712 14.7288 20.0747 13.9651 20.0747C12.3624 20.0747 11.0586 21.3787 11.0586 22.9813C11.0586 24.5839 12.3624 25.8879 13.9651 25.8879C15.5677 25.8879 16.8716 24.5839 16.8716 22.9813C16.8716 22.7717 16.8488 22.5673 16.8063 22.3701L19.9894 20.5639C20.5086 21.0473 21.2041 21.3439 21.9678 21.3439C22.7315 21.3439 23.4268 21.0473 23.9462 20.564L27.1292 22.3702C27.0868 22.5674 27.064 22.7718 27.064 22.9814C27.064 24.584 28.3679 25.888 29.9705 25.888C31.5732 25.888 32.8771 24.584 32.8771 22.9814C32.8771 22.3268 32.6593 21.7221 32.2928 21.2357L37.0682 14.5623C37.3531 14.6557 37.6572 14.7071 37.9732 14.7071ZM37.9732 10.6379C38.6142 10.6379 39.1358 11.1595 39.1358 11.8006C39.1358 12.4417 38.6142 12.9632 37.9732 12.9632C37.3321 12.9632 36.8106 12.4417 36.8106 11.8006C36.8105 11.1595 37.332 10.6379 37.9732 10.6379ZM13.9647 24.1438C13.3237 24.1438 12.8021 23.6222 12.8021 22.9811C12.8021 22.3399 13.3237 21.8184 13.9647 21.8184C14.6058 21.8184 15.1273 22.3399 15.1273 22.9811C15.1273 23.6222 14.6058 24.1438 13.9647 24.1438ZM21.9675 19.5998C21.3265 19.5998 20.805 19.0782 20.805 18.4371C20.805 17.796 21.3265 17.2745 21.9675 17.2745C22.6086 17.2745 23.1301 17.796 23.1301 18.4371C23.1303 19.0782 22.6086 19.5998 21.9675 19.5998ZM29.9704 24.1438C29.3293 24.1438 28.8078 23.6222 28.8078 22.9811C28.8078 22.3399 29.3293 21.8184 29.9704 21.8184C30.6115 21.8184 31.1331 22.3399 31.1331 22.9811C31.1331 23.6222 30.6114 24.1438 29.9704 24.1438Z" fill="black"/>
<path d="M48.6889 43.0632H42.5869H9.3505H2.46644C2.06802 43.0632 1.74389 42.7391 1.74389 42.3406V6.36781C1.74389 5.96939 2.06802 5.64526 2.46644 5.64526H6.5769C7.05845 5.64526 7.44885 5.25497 7.44885 4.77331C7.44885 4.29165 7.05845 3.90137 6.5769 3.90137H2.46644C1.10644 3.90137 0 5.00781 0 6.36781V42.3406C0 43.7006 1.10644 44.8071 2.46644 44.8071H8.47856V46.726C8.47856 47.8192 9.36794 48.7086 10.4611 48.7086H19.1892L15.0806 56.7303C14.8611 57.1589 15.0305 57.6843 15.4591 57.9039C15.5863 57.9691 15.7221 57.9999 15.8559 57.9999C16.1727 57.9999 16.4784 57.8267 16.6326 57.5253L21.1485 48.7086H30.7889L35.3048 57.5253C35.4592 57.8267 35.7647 57.9999 36.0815 57.9999C36.2153 57.9999 36.3511 57.9689 36.4783 57.9039C36.907 57.6843 37.0765 57.1589 36.8569 56.7303L32.7483 48.7086H41.4763C42.5695 48.7086 43.4589 47.8194 43.4589 46.726V44.8071H48.6889C49.1705 44.8071 49.5609 44.4168 49.5609 43.9351C49.5609 43.4535 49.1705 43.0632 48.6889 43.0632ZM41.715 46.726C41.715 46.8577 41.6079 46.9647 41.4763 46.9647H10.4611C10.3295 46.9647 10.2224 46.8577 10.2224 46.726V44.8071H41.715V46.726Z" fill="black"/>
<path d="M10.0653 5.64532H22.0019H29.9367H49.4715C49.8699 5.64532 50.194 5.96945 50.194 6.36787V14.6584C50.194 15.1401 50.5844 15.5304 51.066 15.5304C51.5475 15.5304 51.9379 15.1401 51.9379 14.6584V6.36787C51.9379 5.00787 50.8315 3.90143 49.4715 3.90143H30.8087V2.18753C30.8087 0.981344 29.8274 0 28.6211 0H23.3176C22.1114 0 21.1299 0.981344 21.1299 2.18753V3.90143H10.0653C9.58376 3.90143 9.19336 4.29171 9.19336 4.77337C9.19336 5.25503 9.58376 5.64532 10.0653 5.64532ZM22.8738 2.18753C22.8738 1.94292 23.0729 1.74389 23.3176 1.74389H28.6211C28.8657 1.74389 29.0649 1.94292 29.0649 2.18753V3.90143H22.8739V2.18753H22.8738Z" fill="black"/>
<path d="M12.1962 30.3457C11.7146 30.3457 11.3242 30.736 11.3242 31.2176V38.9224C11.3242 39.404 11.7146 39.7943 12.1962 39.7943H15.7336C16.2151 39.7943 16.6055 39.404 16.6055 38.9224V31.2176C16.6055 30.736 16.2151 30.3457 15.7336 30.3457H12.1962ZM14.8616 38.0506H13.0681V32.0897H14.8616V38.0506Z" fill="black"/>
<path d="M20.1981 25.8896C19.7166 25.8896 19.3262 26.2799 19.3262 26.7616V38.9224C19.3262 39.4041 19.7166 39.7944 20.1981 39.7944H23.7355C24.2171 39.7944 24.6075 39.4041 24.6075 38.9224V26.7616C24.6075 26.2799 24.2171 25.8896 23.7355 25.8896H20.1981ZM22.8637 38.0505H21.0702V27.6335H22.8637V38.0505Z" fill="black"/>
<path d="M28.202 30.3457C27.7205 30.3457 27.3301 30.736 27.3301 31.2176V38.9224C27.3301 39.404 27.7205 39.7943 28.202 39.7943H31.7394C32.221 39.7943 32.6114 39.404 32.6114 38.9224V31.2176C32.6114 30.736 32.221 30.3457 31.7394 30.3457H28.202ZM30.8675 38.0506H29.074V32.0897H30.8675V38.0506Z" fill="black"/>
<path d="M36.204 35.4907C35.7224 35.4907 35.332 35.881 35.332 36.3627V38.9223C35.332 39.404 35.7224 39.7943 36.204 39.7943H39.7414C40.2229 39.7943 40.6133 39.404 40.6133 38.9223C40.6133 38.4407 40.2229 38.0504 39.7414 38.0504H37.0759V36.3627C37.0759 35.881 36.6855 35.4907 36.204 35.4907Z" fill="black"/>
<path d="M59.081 43.8835L54.0787 35.2191C55.346 33.8683 56.2689 32.2178 56.7618 30.3781C57.5497 27.4378 57.1454 24.3666 55.6233 21.7303C52.4813 16.2878 45.4975 14.4169 40.0554 17.5588C34.6132 20.7007 32.742 27.6845 35.884 33.1267C37.4061 35.763 39.8637 37.6487 42.804 38.4367C43.7859 38.6998 44.7821 38.8299 45.7721 38.8299C46.6373 38.8299 47.4975 38.7304 48.3387 38.5335L53.34 47.198C53.953 48.2603 55.0693 48.8547 56.2159 48.8546C56.7778 48.8546 57.347 48.7117 57.8677 48.4113C58.8903 47.8211 59.5257 46.7204 59.5257 45.539C59.5257 44.9602 59.372 44.3878 59.081 43.8835ZM43.2553 36.7523C40.7649 36.0849 38.6833 34.4876 37.3941 32.2548C34.7329 27.6453 36.3179 21.7303 40.9272 19.069C42.4436 18.1936 44.1006 17.7778 45.7373 17.7778C49.0757 17.7778 52.3272 19.5093 54.113 22.6022C55.4021 24.8351 55.7446 27.4363 55.0772 29.9268C54.4099 32.4173 52.8126 34.4987 50.5798 35.7879C48.347 37.0771 45.7458 37.4193 43.2553 36.7523ZM56.9961 46.9009C56.2459 47.3341 55.2833 47.0762 54.8504 46.3263L50.0387 37.9901C50.5209 37.7932 50.9932 37.563 51.4519 37.2982C51.911 37.0331 52.3458 36.7381 52.7575 36.4186L57.5707 44.7552C57.7088 44.9948 57.7818 45.2659 57.7818 45.5391C57.7818 46.0993 57.4807 46.6212 56.9961 46.9009Z" fill="black"/>
<path d="M53.6589 29.8848C54.2745 27.9019 54.1279 25.779 53.246 23.9072C53.0407 23.4715 52.5213 23.2848 52.0857 23.49C51.6499 23.6953 51.4632 24.2147 51.6685 24.6503C52.3641 26.1268 52.4795 27.802 51.9935 29.3676C51.5047 30.9417 50.4488 32.2628 49.0204 33.0875C47.5088 33.9604 45.7475 34.192 44.0617 33.7403C42.3757 33.2885 40.9664 32.2072 40.0937 30.6956C38.2921 27.5751 39.3651 23.5706 42.4857 21.769C44.7672 20.4519 47.5987 20.6279 49.6997 22.2174C50.0838 22.508 50.6306 22.4323 50.9211 22.0482C51.2116 21.6642 51.1359 21.1173 50.7518 20.8268C48.0905 18.8131 44.5035 18.5902 41.6136 20.2586C39.6986 21.3643 38.3287 23.1495 37.7563 25.2855C37.184 27.4214 37.4778 29.6524 38.5834 31.5674C39.689 33.4826 41.4743 34.8523 43.6102 35.4248C44.3235 35.6159 45.0473 35.7104 45.7664 35.7104C47.2008 35.7104 48.6167 35.3342 49.8922 34.5977C51.702 33.553 53.0397 31.8793 53.6589 29.8848Z" fill="black"/>
</svg>
