<svg width="49" height="58" viewBox="0 0 49 58" fill="none" xmlns="http://www.w3.org/2000/svg">
<path d="M8.76256 16.6996C8.76256 17.2162 9.18142 17.635 9.69804 17.635H13.4444C14.9555 19.291 17.1299 20.3318 19.543 20.3318C21.956 20.3318 24.1305 19.291 25.6415 17.635H32.9599C33.4765 17.635 33.8954 17.2162 33.8954 16.6996C33.8954 16.1829 33.4765 15.7641 32.9599 15.7641H26.9266C27.484 14.653 27.7999 13.4005 27.7999 12.075C27.7999 7.52211 24.0958 3.81818 19.5431 3.81818C16.1115 3.81818 13.1631 5.9229 11.9185 8.90885H9.69816C9.18154 8.90885 8.76268 9.32771 8.76268 9.84433C8.76268 10.361 9.18154 10.7798 9.69816 10.7798H11.3887C11.3219 11.202 11.2864 11.6344 11.2864 12.0751C11.2864 13.4006 11.6021 14.6531 12.1597 15.7642H9.69828C9.1813 15.7641 8.76256 16.1829 8.76256 16.6996ZM19.543 5.68915C23.0641 5.68915 25.9288 8.55383 25.9288 12.075C25.9288 15.5962 23.0641 18.4608 19.543 18.4608C16.0218 18.4608 13.1571 15.5962 13.1571 12.075C13.1571 8.55383 16.0218 5.68915 19.543 5.68915ZM22.6192 23.5549C22.6192 24.0715 22.2003 24.4904 21.6837 24.4904H9.69804C9.18142 24.4904 8.76256 24.0715 8.76256 23.5549C8.76256 23.0383 9.18142 22.6194 9.69804 22.6194H21.6837C22.2003 22.6194 22.6192 23.0383 22.6192 23.5549ZM22.5498 30.4102C22.5498 30.9269 22.131 31.3457 21.6144 31.3457H9.69804C9.18142 31.3457 8.76256 30.9269 8.76256 30.4102C8.76256 29.8936 9.18142 29.4748 9.69804 29.4748H21.6144C22.1311 29.4748 22.5498 29.8936 22.5498 30.4102ZM20.8449 14.3021C20.9117 14.225 20.9764 14.117 20.9502 13.9015C20.9251 13.6955 20.8666 13.2129 19.3981 12.9717C16.9692 12.5729 16.5424 11.1882 16.504 10.3981C16.4419 9.12027 17.2806 8.04434 18.6075 7.67272V7.44189C18.6075 6.92527 19.0263 6.50641 19.543 6.50641C20.0596 6.50641 20.4784 6.92527 20.4784 7.44189V7.66419C21.3335 7.89467 22.132 8.46718 22.5609 9.48861C22.7609 9.96501 22.537 10.5133 22.0606 10.7133C21.584 10.9132 21.0359 10.6892 20.8359 10.2129C20.4933 9.39717 19.6433 9.35145 19.1948 9.4533C18.9945 9.49879 18.3431 9.69465 18.3729 10.3073C18.3809 10.4727 18.4021 10.912 19.7013 11.1254C21.5947 11.4363 22.6399 12.2945 22.8076 13.676C22.8923 14.3742 22.703 15.0139 22.2601 15.526C21.8452 16.0058 21.2094 16.3513 20.4786 16.5105V16.7079C20.4786 17.2245 20.0597 17.6433 19.5431 17.6433C19.0265 17.6433 18.6076 17.2245 18.6076 16.7079V16.4943C17.4479 16.2055 16.5654 15.3888 16.2867 14.2705C16.1617 13.7692 16.4667 13.2615 16.968 13.1365C17.4695 13.0113 17.9771 13.3166 18.1021 13.8179C18.2768 14.5188 19.0268 14.7509 19.6164 14.737C20.1288 14.725 20.6341 14.5461 20.8449 14.3021ZM45.1684 22.6194H41.9158V7.72862C41.9158 7.19679 41.717 6.71701 41.341 6.34094L35.5747 0.574738C35.1987 0.19879 34.719 0 34.1871 0H2.7046C1.62248 0 0.742188 0.88029 0.742188 1.96241V50.8483C0.742188 51.9305 1.62248 52.8109 2.7046 52.8109H2.87837C2.2841 54.1155 1.89716 55.5159 1.7421 56.965C1.7138 57.2289 1.79905 57.4924 1.97644 57.6899C2.15383 57.8873 2.40676 58 2.67221 58H27.7348C28.0002 58 28.2531 57.8873 28.4305 57.6898C28.6079 57.4924 28.6932 57.2289 28.6649 56.9649C28.5098 55.5159 28.1229 54.1154 27.5286 52.8109H39.9533C41.0355 52.8109 41.9158 51.9305 41.9158 50.8483V41.3759H45.1684C47.0122 41.3759 48.512 39.8759 48.512 38.0322V25.9631C48.5121 24.1193 47.0122 22.6194 45.1684 22.6194ZM38.7219 6.36772H35.548V3.19386L38.7219 6.36772ZM3.75959 56.129C4.82955 50.7161 9.57713 46.7529 15.2023 46.7523H15.2035H15.2047C20.8297 46.7529 25.5772 50.7161 26.6473 56.129H3.75959ZM9.76645 39.4442C9.76645 36.4462 12.2055 34.0071 15.2036 34.0071C18.2017 34.0071 20.6407 36.4461 20.6407 39.4442C20.6407 42.4417 18.2025 44.8805 15.2051 44.8814C15.2045 44.8814 15.2041 44.8814 15.2035 44.8814C15.203 44.8814 15.2024 44.8814 15.202 44.8814C12.2047 44.8804 9.76645 42.4417 9.76645 39.4442ZM40.0448 50.8483C40.0448 50.8971 40.002 50.9399 39.9533 50.9399H26.49C25.8692 50.0047 25.1291 49.1424 24.2813 48.3756C22.8245 47.0581 21.1171 46.0874 19.2784 45.5078C21.2273 44.1939 22.5116 41.9663 22.5116 39.4442C22.5116 35.4145 19.2332 32.1361 15.2035 32.1361C11.1738 32.1361 7.89537 35.4145 7.89537 39.4442C7.89537 41.9663 9.17967 44.1939 11.1285 45.5078C9.2897 46.0874 7.58233 47.0581 6.12543 48.3756C5.27765 49.1423 4.53768 50.0047 3.91675 50.9399H2.7046C2.65584 50.9399 2.61315 50.8971 2.61315 50.8483V1.96241C2.61315 1.91365 2.65595 1.87097 2.7046 1.87097H33.6771V6.78974C33.6771 7.58876 34.3271 8.23869 35.126 8.23869H40.0448V22.6194H27.5307C25.687 22.6194 24.1871 24.1193 24.1871 25.9631V38.0322C24.1871 39.8759 25.687 41.3759 27.5307 41.3759H28.6329V45.3457C28.6329 45.7275 28.8649 46.0709 29.2191 46.2135C29.3324 46.2591 29.4508 46.2812 29.5682 46.2812C29.818 46.2812 30.0631 46.1811 30.243 45.9938L34.6792 41.3759H40.0448V50.8483ZM46.6411 38.0322C46.6411 38.8442 45.9806 39.5049 45.1686 39.5049H34.2808C34.0262 39.5049 33.7825 39.6087 33.6062 39.7923L30.504 43.0216V40.4404C30.504 39.9238 30.0852 39.5049 29.5685 39.5049H27.5308C26.7188 39.5049 26.0581 38.8443 26.0581 38.0322V25.9631C26.0581 25.1511 26.7187 24.4904 27.5308 24.4904H45.1686C45.9806 24.4904 46.6411 25.151 46.6411 25.9631V38.0322ZM43.366 27.6604C43.366 28.177 42.9471 28.5959 42.4305 28.5959H30.2686C29.752 28.5959 29.3331 28.177 29.3331 27.6604C29.3331 27.1438 29.752 26.7249 30.2686 26.7249H42.4305C42.9471 26.7249 43.366 27.1438 43.366 27.6604ZM43.3659 31.9976C43.3659 32.5143 42.947 32.9331 42.4304 32.9331H30.2686C29.752 32.9331 29.3331 32.5143 29.3331 31.9976C29.3331 31.481 29.752 31.0622 30.2686 31.0622H42.4304C42.9471 31.0622 43.3659 31.481 43.3659 31.9976ZM43.3659 36.3349C43.3659 36.8515 42.947 37.2704 42.4304 37.2704H30.2686C29.752 37.2704 29.3331 36.8515 29.3331 36.3349C29.3331 35.8183 29.752 35.3994 30.2686 35.3994H42.4304C42.9471 35.3994 43.3659 35.8182 43.3659 36.3349Z" fill="black"/>
</svg>
