<svg width="60" height="60" viewBox="0 0 60 60" fill="none" xmlns="http://www.w3.org/2000/svg">
<path d="M50.8326 11.1895H1.23242" stroke="black" stroke-width="1.5" stroke-miterlimit="10" stroke-linecap="round" stroke-linejoin="round"/>
<path d="M14.5195 1H49.8967C50.5413 1 51.0637 1.52247 51.0637 2.167V16.7486" stroke="black" stroke-width="1.5" stroke-miterlimit="10" stroke-linecap="round" stroke-linejoin="round"/>
<path d="M26.3747 49.4306H2.167C1.52247 49.4306 1 48.9081 1 48.2636V2.167C1 1.52247 1.52247 1 2.167 1H9.75917" stroke="black" stroke-width="1.5" stroke-miterlimit="10" stroke-linecap="round" stroke-linejoin="round"/>
<path d="M29.5278 7.84524C30.4946 7.84524 31.2783 7.06152 31.2783 6.09474C31.2783 5.12797 30.4946 4.34424 29.5278 4.34424C28.5611 4.34424 27.7773 5.12797 27.7773 6.09474C27.7773 7.06152 28.5611 7.84524 29.5278 7.84524Z" stroke="black" stroke-width="1.5" stroke-miterlimit="10" stroke-linecap="round" stroke-linejoin="round"/>
<path d="M36.8208 7.84524C37.7876 7.84524 38.5713 7.06152 38.5713 6.09474C38.5713 5.12797 37.7876 4.34424 36.8208 4.34424C35.854 4.34424 35.0703 5.12797 35.0703 6.09474C35.0703 7.06152 35.854 7.84524 36.8208 7.84524Z" stroke="black" stroke-width="1.5" stroke-miterlimit="10" stroke-linecap="round" stroke-linejoin="round"/>
<path d="M44.1157 7.84524C45.0825 7.84524 45.8662 7.06152 45.8662 6.09474C45.8662 5.12797 45.0825 4.34424 44.1157 4.34424C43.149 4.34424 42.3652 5.12797 42.3652 6.09474C42.3652 7.06152 43.149 7.84524 44.1157 7.84524Z" stroke="black" stroke-width="1.5" stroke-miterlimit="10" stroke-linecap="round" stroke-linejoin="round"/>
<path d="M58.9997 51.0745V58.2996C58.9997 58.6864 58.6863 58.9998 58.2995 58.9998H27.3545C26.9678 58.9998 26.6543 58.6864 26.6543 58.2996V17.7852C26.6543 17.3984 26.9678 17.085 27.3545 17.085H58.2995C58.6863 17.085 58.9997 17.3984 58.9997 17.7852V46.9058" stroke="black" stroke-width="1.5" stroke-miterlimit="10" stroke-linecap="round" stroke-linejoin="round"/>
<path d="M32.9082 23.5859H52.7472" stroke="black" stroke-width="1.5" stroke-miterlimit="10" stroke-linecap="round" stroke-linejoin="round"/>
<path d="M32.9082 27.0869H49.03" stroke="black" stroke-width="1.5" stroke-miterlimit="10" stroke-linecap="round" stroke-linejoin="round"/>
<path d="M34.6587 34.3301C35.6255 34.3301 36.4092 33.5464 36.4092 32.5796C36.4092 31.6128 35.6255 30.8291 34.6587 30.8291C33.6919 30.8291 32.9082 31.6128 32.9082 32.5796C32.9082 33.5464 33.6919 34.3301 34.6587 34.3301Z" stroke="black" stroke-width="1.5" stroke-miterlimit="10" stroke-linecap="round" stroke-linejoin="round"/>
<path d="M41.9517 34.3301C42.9185 34.3301 43.7022 33.5464 43.7022 32.5796C43.7022 31.6128 42.9185 30.8291 41.9517 30.8291C40.9849 30.8291 40.2012 31.6128 40.2012 32.5796C40.2012 33.5464 40.9849 34.3301 41.9517 34.3301Z" stroke="black" stroke-width="1.5" stroke-miterlimit="10" stroke-linecap="round" stroke-linejoin="round"/>
<path d="M49.2466 34.3301C50.2134 34.3301 50.9971 33.5464 50.9971 32.5796C50.9971 31.6128 50.2134 30.8291 49.2466 30.8291C48.2798 30.8291 47.4961 31.6128 47.4961 32.5796C47.4961 33.5464 48.2798 34.3301 49.2466 34.3301Z" stroke="black" stroke-width="1.5" stroke-miterlimit="10" stroke-linecap="round" stroke-linejoin="round"/>
<path d="M32.9082 40.8975H52.7472" stroke="black" stroke-width="1.5" stroke-miterlimit="10" stroke-linecap="round" stroke-linejoin="round"/>
<path d="M32.9082 44.3984H49.03" stroke="black" stroke-width="1.5" stroke-miterlimit="10" stroke-linecap="round" stroke-linejoin="round"/>
<path d="M34.6587 51.6421C35.6255 51.6421 36.4092 50.8584 36.4092 49.8916C36.4092 48.9248 35.6255 48.1411 34.6587 48.1411C33.6919 48.1411 32.9082 48.9248 32.9082 49.8916C32.9082 50.8584 33.6919 51.6421 34.6587 51.6421Z" stroke="black" stroke-width="1.5" stroke-miterlimit="10" stroke-linecap="round" stroke-linejoin="round"/>
<path d="M41.9517 51.6421C42.9185 51.6421 43.7022 50.8584 43.7022 49.8916C43.7022 48.9248 42.9185 48.1411 41.9517 48.1411C40.9849 48.1411 40.2012 48.9248 40.2012 49.8916C40.2012 50.8584 40.9849 51.6421 41.9517 51.6421Z" stroke="black" stroke-width="1.5" stroke-miterlimit="10" stroke-linecap="round" stroke-linejoin="round"/>
<path d="M49.2466 51.6421C50.2134 51.6421 50.9971 50.8584 50.9971 49.8916C50.9971 48.9248 50.2134 48.1411 49.2466 48.1411C48.2798 48.1411 47.4961 48.9248 47.4961 49.8916C47.4961 50.8584 48.2798 51.6421 49.2466 51.6421Z" stroke="black" stroke-width="1.5" stroke-miterlimit="10" stroke-linecap="round" stroke-linejoin="round"/>
<path d="M13.4282 24.0484C14.395 24.0484 15.1787 23.2646 15.1787 22.2979C15.1787 21.3311 14.395 20.5474 13.4282 20.5474C12.4615 20.5474 11.6777 21.3311 11.6777 22.2979C11.6777 23.2646 12.4615 24.0484 13.4282 24.0484Z" stroke="black" stroke-width="1.5" stroke-miterlimit="10" stroke-linecap="round" stroke-linejoin="round"/>
<path d="M17.0722 25.7987C16.2168 24.7319 14.903 24.0483 13.4292 24.0483C11.9401 24.0483 10.6145 24.746 9.75977 25.8319" stroke="black" stroke-width="1.5" stroke-miterlimit="10" stroke-linecap="round" stroke-linejoin="round"/>
<path d="M13.4292 27.5494C16.3296 27.5494 18.6808 25.1982 18.6808 22.2979C18.6808 19.3976 16.3296 17.0464 13.4292 17.0464C10.5289 17.0464 8.17773 19.3976 8.17773 22.2979C8.17773 25.1982 10.5289 27.5494 13.4292 27.5494Z" stroke="black" stroke-width="1.5" stroke-miterlimit="10" stroke-linecap="round" stroke-linejoin="round"/>
<path d="M9.69336 31.5977H17.1363" stroke="black" stroke-width="1.5" stroke-miterlimit="10" stroke-linecap="round" stroke-linejoin="round"/>
<path d="M6.87891 35.0986H19.9493" stroke="black" stroke-width="1.5" stroke-miterlimit="10" stroke-linecap="round" stroke-linejoin="round"/>
<path d="M17.7457 44.5874H9.10989C7.62744 44.5874 6.42578 43.3858 6.42578 41.9033C6.42578 40.4209 7.62744 39.2192 9.10989 39.2192H17.7457C19.2281 39.2192 20.4298 40.4209 20.4298 41.9033C20.4298 43.3858 19.2281 44.5874 17.7457 44.5874Z" stroke="black" stroke-width="1.5" stroke-miterlimit="10" stroke-linecap="round" stroke-linejoin="round"/>
</svg>
